<?xml version="1.0" standalone="no"?><!DOCTYPE svg PUBLIC "-//W3C//DTD SVG 1.1//EN" "http://www.w3.org/Graphics/SVG/1.1/DTD/svg11.dtd"><svg t="1772947924106" class="icon" viewBox="0 0 1024 1024" version="1.1" xmlns="http://www.w3.org/2000/svg" p-id="5239" xmlns:xlink="http://www.w3.org/1999/xlink" width="200" height="200"><path d="M899.299556 472.126578c-24.143644 13.437156-58.652444 20.110222-87.466667 23.409778 45.693156-38.980267 90.055111-83.399111 107.997867-139.281067 24.337067-75.810133 25.070933-146.084978 2.309688-221.138489a17.7664 17.7664 0 0 0-14.2336-12.401778c-6.792533-1.1776-13.442844 1.792-17.3568 7.350045-60.3648 86.311822-140.191289 141.3632-227.441777 157.633422 26.077867-52.662044 54.8352-112.110933 48.64-174.250667a17.772089 17.772089 0 0 0-30.378667-10.695111c-92.501333 94.549333-166.326044 114.505956-255.488 116.047645-98.446222 1.700978-192.4608 47.263289-257.905778 125.024711-64.910222 77.090133-93.639111 176.526222-78.825244 272.810666 23.796622 154.936889 138.973867 270.887822 293.432889 295.389867a369.436444 369.436444 0 0 0 57.833244 4.596622c126.867911 0 240.713956-67.350756 305.755022-184.354133 7.418311-13.312 19.592533-26.373689 33.393778-35.879822 62.805333-43.133156 108.2368-98.963911 134.985956-165.984711 3.697778-9.272889 6.411378-20.679111 8.789333-30.748445l1.831822-7.594667a17.8176 17.8176 0 0 0-6.405689-18.477511 17.846044 17.846044 0 0 0-19.467377-1.456355zM130.844444 592.355556c15.121067 48.583111 108.088889 64.853333 108.088889 64.853333-77.596444 85.185422-108.088889-64.853333-108.088889-64.853333z m216.177778 60.740266s187.130311-20.980622 261.688889-83.495822c0 0-108.5952 240.110933-261.688889 83.495822z" fill="#FFFFFF" p-id="5240"></path></svg>